<svg id="Layer_1" data-name="Layer 1" xmlns="http://www.w3.org/2000/svg" viewBox="0 0 119 119"><title>sl-logo-l</title><circle cx="59.5" cy="59.5" r="55" transform="translate(-8.6 108.9) rotate(-80.9)" fill="#fff"/><path d="M59.5,0A59.5,59.5,0,1,0,119,59.5,59.5,59.5,0,0,0,59.5,0Zm20,103.6-3,1.2L69.7,89.4l3-1.2A31.7,31.7,0,0,0,91.2,54.7L69.9,64.1h0L18.2,86.9l-3.4-7.7h0a41,41,0,0,1-2.7-7.9A48.4,48.4,0,0,1,39.5,15.4l2.9-1.2,6.9,15.4c-1,.4-2,.7-3,1.2A31.6,31.6,0,0,0,27.8,64.3l21.3-9.4H49l51.8-22.8,3.4,7.7a49.2,49.2,0,0,1,2.7,7.9A48.5,48.5,0,0,1,79.5,103.6Z" fill="#020202"/></svg>